<?xml version="1.0" encoding="UTF-8"?>
<!DOCTYPE svg PUBLIC "-//W3C//DTD SVG 1.1//EN" "http://www.w3.org/Graphics/SVG/1.1/DTD/svg11.dtd">
<!-- Creator: CorelDRAW X8 -->
<svg xmlns="http://www.w3.org/2000/svg" xml:space="preserve" width="86.0632mm" height="86.0648mm" version="1.1" style="shape-rendering:geometricPrecision; text-rendering:geometricPrecision; image-rendering:optimizeQuality; fill-rule:evenodd; clip-rule:evenodd"
viewBox="0 0 12370 12370"
 xmlns:xlink="http://www.w3.org/1999/xlink">
 <defs>
  <style type="text/css">
   <![CDATA[
    .fil0 {fill:none}
    .fil1 {fill:black}
    .fil2 {fill:white}
   ]]>
  </style>
 </defs>
 <g id="arqfi_isotipo">
  <metadata id="CorelCorpID_0Corel-Layer"/>
  <g id="arqfi_isotipo1">
   <polygon id="border_x0020_" class="fil0" points="0,0 12370,0 12370,12370 0,12370 "/>
   <g id="isotipo">
    <path class="fil1" d="M5380 2106l-3274 0 0 8158 3274 0 0 -767c-1493,-362 -2602,-1707 -2602,-3312 0,-1604 1109,-2950 2602,-3311l0 -768zm1610 0l0 768c1493,361 2603,1707 2603,3311 0,1605 -1110,2950 -2603,3312l0 767 3274 0 0 -8158 -3274 0zm-1610 5687l0 -3215c-588,295 -992,904 -992,1607 0,704 404,1313 992,1608zm1610 -3215l0 3215c589,-295 993,-904 993,-1608 0,-703 -404,-1312 -993,-1607z"/>
    <g>
     <path class="fil2" d="M5380 672l1610 0 0 2202c1493,361 2603,1707 2603,3311 0,1605 -1110,2950 -2603,3312l0 2202 -1610 0 0 -2202c-1493,-362 -2602,-1707 -2602,-3312 0,-1604 1109,-2950 2602,-3311l0 -2202zm1610 3906l0 3215c589,-295 993,-904 993,-1608 0,-703 -404,-1312 -993,-1607zm-1610 3215l0 -3215c-588,295 -992,904 -992,1607 0,704 404,1313 992,1608z"/>
     <path id="1" class="fil1" d="M5380 672l1610 0 0 2202c1493,361 2603,1707 2603,3311 0,1605 -1110,2950 -2603,3312l0 2202 -1610 0 0 -2202c-1493,-362 -2602,-1707 -2602,-3312 0,-1604 1109,-2950 2602,-3311l0 -2202zm1610 3906l0 3215c589,-295 993,-904 993,-1608 0,-703 -404,-1312 -993,-1607zm-1610 3215l0 -3215c-588,295 -992,904 -992,1607 0,704 404,1313 992,1608zm1538 -7050l-1466 0 0 2131 0 56 -55 13c-738,179 -1381,604 -1836,1183 -446,567 -711,1282 -711,2059 0,778 265,1493 711,2059 455,580 1098,1004 1836,1183l55 14 0 56 0 2130 1466 0 0 -2130 0 -56 55 -14c739,-179 1381,-603 1836,-1183 446,-566 712,-1281 712,-2059 0,-777 -266,-1492 -712,-2059 -455,-579 -1097,-1004 -1836,-1183l-55 -13 0 -56 0 -2131zm0 7050l0 -3215 0 -116 104 52c311,156 573,396 755,691 176,285 278,621 278,980 0,360 -102,695 -278,981 -182,294 -444,535 -755,691l-104 52 0 -116zm-1466 -3215l0 3215 0 116 -104 -52c-311,-156 -573,-397 -754,-691 -177,-286 -278,-621 -278,-981 0,-359 101,-695 278,-980 181,-295 443,-535 754,-691l104 -52 0 116z"/>
    </g>
   </g>
  </g>
 </g>
</svg>
